<?xml version="1.0" encoding="UTF-8"?>
<!DOCTYPE svg PUBLIC "-//W3C//DTD SVG 1.1//EN" "http://www.w3.org/Graphics/SVG/1.1/DTD/svg11.dtd">
<svg xmlns="http://www.w3.org/2000/svg" version="1.1" width="500px" height="500px" style="shape-rendering:geometricPrecision; text-rendering:geometricPrecision; image-rendering:optimizeQuality; fill-rule:evenodd; clip-rule:evenodd" xmlns:xlink="http://www.w3.org/1999/xlink">
<g><path style="opacity:0.506" fill="#230f37" d="M 244.5,150.5 C 247.313,151.082 249.98,152.082 252.5,153.5C 246.752,152.567 240.752,152.401 234.5,153C 234.043,152.586 233.709,152.086 233.5,151.5C 237.107,150.511 240.774,150.177 244.5,150.5 Z"/></g>
<g><path style="opacity:0.02" fill="#1f0d33" d="M 257.5,150.5 C 265.94,151.291 272.273,155.291 276.5,162.5C 273.665,159.835 270.665,157.335 267.5,155C 263.939,153.768 260.606,152.268 257.5,150.5 Z"/></g>
<g><path style="opacity:0.165" fill="#33114f" d="M 236.5,155.5 C 236.5,155.833 236.5,156.167 236.5,156.5C 233.167,156.833 229.833,157.167 226.5,157.5C 229.544,155.989 232.878,155.322 236.5,155.5 Z"/></g>
<g><path style="opacity:0.953" fill="#5c1c81" d="M 244.5,150.5 C 248.833,150.5 253.167,150.5 257.5,150.5C 260.606,152.268 263.939,153.768 267.5,155C 270.665,157.335 273.665,159.835 276.5,162.5C 277.906,162.973 278.573,163.973 278.5,165.5C 278.649,166.552 278.483,167.552 278,168.5C 277.292,167.619 276.458,166.953 275.5,166.5C 269.203,159.848 261.536,155.515 252.5,153.5C 249.98,152.082 247.313,151.082 244.5,150.5 Z"/></g>
<g><path style="opacity:0.22" fill="#1e0d39" d="M 236.5,155.5 C 252.934,153.216 265.934,158.882 275.5,172.5C 271.792,168.79 267.792,165.457 263.5,162.5C 255.304,157.533 246.304,155.2 236.5,155.5 Z"/></g>
<g><path style="opacity:0.063" fill="#2c123f" d="M 226.5,157.5 C 223.05,159.208 219.383,160.541 215.5,161.5C 218.66,159 222.327,157.667 226.5,157.5 Z"/></g>
<g><path style="opacity:0.235" fill="#311749" d="M 215.5,161.5 C 215.027,162.906 214.027,163.573 212.5,163.5C 212.973,162.094 213.973,161.427 215.5,161.5 Z"/></g>
<g><path style="opacity:0.998" fill="#962ab9" d="M 236.5,156.5 C 237.239,156.369 237.906,156.536 238.5,157C 237.24,158.814 237.24,160.647 238.5,162.5C 243.114,163.756 247.781,164.756 252.5,165.5C 250.996,167.836 248.996,169.669 246.5,171C 248.303,171.637 249.636,172.803 250.5,174.5C 249.567,178.429 249.234,182.429 249.5,186.5C 247.784,186.371 246.117,186.038 244.5,185.5C 242.412,184.061 240.079,183.394 237.5,183.5C 237.389,182.883 237.056,182.383 236.5,182C 232.514,181.501 228.514,181.334 224.5,181.5C 228.312,180.676 232.312,180.176 236.5,180C 235.167,177.333 235.167,174.667 236.5,172C 232.167,171.667 227.833,171.333 223.5,171C 225.455,170.047 227.122,168.713 228.5,167C 227.833,166.833 227.167,166.667 226.5,166.5C 222.512,167.076 218.845,168.409 215.5,170.5C 213.468,169.449 212.135,167.783 211.5,165.5C 210.06,166.952 208.394,167.952 206.5,168.5C 207.911,166.086 209.911,164.419 212.5,163.5C 214.027,163.573 215.027,162.906 215.5,161.5C 219.383,160.541 223.05,159.208 226.5,157.5C 229.833,157.167 233.167,156.833 236.5,156.5 Z"/></g>
<g><path style="opacity:0.094" fill="#281135" d="M 206.5,168.5 C 205.833,169.833 204.833,170.833 203.5,171.5C 203.5,169.5 204.5,168.5 206.5,168.5 Z"/></g>
<g><path style="opacity:0.554" fill="#150839" d="M 278.5,165.5 C 281.555,168.996 282.555,172.996 281.5,177.5C 279.221,173.939 277.221,170.273 275.5,166.5C 276.458,166.953 277.292,167.619 278,168.5C 278.483,167.552 278.649,166.552 278.5,165.5 Z"/></g>
<g><path style="opacity:0.129" fill="#14072a" d="M 275.5,172.5 C 276.906,172.973 277.573,173.973 277.5,175.5C 276.094,175.027 275.427,174.027 275.5,172.5 Z"/></g>
<g><path style="opacity:1" fill="#8424af" d="M 252.5,165.5 C 254.512,166.228 256.512,167.062 258.5,168C 256.649,169.684 254.982,171.517 253.5,173.5C 255.19,176.024 257.357,178.024 260,179.5C 260.667,191.5 260.667,203.5 260,215.5C 259.689,219.09 258.856,222.423 257.5,225.5C 257.785,223.712 257.452,222.045 256.5,220.5C 255.431,221.91 254.097,222.91 252.5,223.5C 252.5,222.5 252.5,221.5 252.5,220.5C 252.5,220.167 252.5,219.833 252.5,219.5C 253.818,216.742 254.485,213.576 254.5,210C 254.333,206.833 254.167,203.667 254,200.5C 253.617,199.944 253.117,199.611 252.5,199.5C 252.5,199.167 252.5,198.833 252.5,198.5C 251.561,195.197 250.561,191.864 249.5,188.5C 247.067,188.727 245.401,187.727 244.5,185.5C 246.117,186.038 247.784,186.371 249.5,186.5C 249.234,182.429 249.567,178.429 250.5,174.5C 249.636,172.803 248.303,171.637 246.5,171C 248.996,169.669 250.996,167.836 252.5,165.5 Z"/></g>
<g><path style="opacity:0.49" fill="#3c1652" d="M 200.5,175.5 C 199.345,179.797 197.679,183.797 195.5,187.5C 195.627,182.768 197.293,178.768 200.5,175.5 Z"/></g>
<g><path style="opacity:1" fill="#ae32c6" d="M 224.5,181.5 C 223.508,181.328 222.842,181.662 222.5,182.5C 218.749,183.412 215.416,185.078 212.5,187.5C 207.828,190.006 204.328,193.673 202,198.5C 199.924,201.893 198.758,205.56 198.5,209.5C 197.523,212.287 197.19,215.287 197.5,218.5C 194.595,208.432 193.928,198.098 195.5,187.5C 197.679,183.797 199.345,179.797 200.5,175.5C 200.738,173.596 201.738,172.262 203.5,171.5C 204.833,170.833 205.833,169.833 206.5,168.5C 208.394,167.952 210.06,166.952 211.5,165.5C 212.135,167.783 213.468,169.449 215.5,170.5C 218.845,168.409 222.512,167.076 226.5,166.5C 227.167,166.667 227.833,166.833 228.5,167C 227.122,168.713 225.455,170.047 223.5,171C 227.833,171.333 232.167,171.667 236.5,172C 235.167,174.667 235.167,177.333 236.5,180C 232.312,180.176 228.312,180.676 224.5,181.5 Z"/></g>
<g><path style="opacity:0.106" fill="#310f4c" d="M 222.5,182.5 C 222.842,181.662 223.508,181.328 224.5,181.5C 228.514,181.334 232.514,181.501 236.5,182C 237.056,182.383 237.389,182.883 237.5,183.5C 233.846,183.058 230.179,182.724 226.5,182.5C 225.167,182.5 223.833,182.5 222.5,182.5 Z"/></g>
<g><path style="opacity:1" fill="#7820a9" d="M 236.5,156.5 C 236.5,156.167 236.5,155.833 236.5,155.5C 246.304,155.2 255.304,157.533 263.5,162.5C 262.624,162.369 261.957,162.702 261.5,163.5C 262.154,165.115 262.654,166.782 263,168.5C 265.221,170.714 267.388,173.047 269.5,175.5C 267.573,178.242 265.906,181.075 264.5,184C 271.288,201.215 268.622,216.715 256.5,230.5C 256.366,228.708 256.699,227.042 257.5,225.5C 258.856,222.423 259.689,219.09 260,215.5C 260.667,203.5 260.667,191.5 260,179.5C 257.357,178.024 255.19,176.024 253.5,173.5C 254.982,171.517 256.649,169.684 258.5,168C 256.512,167.062 254.512,166.228 252.5,165.5C 247.781,164.756 243.114,163.756 238.5,162.5C 237.24,160.647 237.24,158.814 238.5,157C 237.906,156.536 237.239,156.369 236.5,156.5 Z"/></g>
<g><path style="opacity:0.275" fill="#281045" d="M 237.5,183.5 C 240.079,183.394 242.412,184.061 244.5,185.5C 245.401,187.727 247.067,188.727 249.5,188.5C 250.561,191.864 251.561,195.197 252.5,198.5C 249.46,191.491 244.46,186.491 237.5,183.5 Z"/></g>
<g><path style="opacity:0.969" fill="#1c4b5d" d="M 222.5,182.5 C 223.833,182.5 225.167,182.5 226.5,182.5C 222.538,185.488 218.538,188.488 214.5,191.5C 214.843,189.517 214.176,188.183 212.5,187.5C 215.416,185.078 218.749,183.412 222.5,182.5 Z"/></g>
<g><path style="opacity:0.996" fill="#327d9d" d="M 212.5,187.5 C 214.176,188.183 214.843,189.517 214.5,191.5C 214.5,192.167 214.167,192.5 213.5,192.5C 213.631,191.624 213.298,190.957 212.5,190.5C 206.593,196.009 201.926,202.342 198.5,209.5C 198.758,205.56 199.924,201.893 202,198.5C 204.328,193.673 207.828,190.006 212.5,187.5 Z"/></g>
<g><path style="opacity:0.263" fill="#1a0a3a" d="M 277.5,175.5 C 279.746,177.649 281.246,180.316 282,183.5C 282.87,191.897 282.537,200.23 281,208.5C 280.14,211.633 278.64,214.3 276.5,216.5C 282.734,202.983 283.068,189.316 277.5,175.5 Z"/></g>
<g><path style="opacity:1" fill="#4c128f" d="M 263.5,162.5 C 267.792,165.457 271.792,168.79 275.5,172.5C 275.427,174.027 276.094,175.027 277.5,175.5C 283.068,189.316 282.734,202.983 276.5,216.5C 275.094,216.973 274.427,217.973 274.5,219.5C 266.803,230.352 256.803,238.352 244.5,243.5C 243.833,243.5 243.167,243.5 242.5,243.5C 247.768,239.902 252.435,235.568 256.5,230.5C 268.622,216.715 271.288,201.215 264.5,184C 265.906,181.075 267.573,178.242 269.5,175.5C 267.388,173.047 265.221,170.714 263,168.5C 262.654,166.782 262.154,165.115 261.5,163.5C 261.957,162.702 262.624,162.369 263.5,162.5 Z"/></g>
<g><path style="opacity:0.318" fill="#301248" d="M 252.5,199.5 C 253.117,199.611 253.617,199.944 254,200.5C 254.167,203.667 254.333,206.833 254.5,210C 254.485,213.576 253.818,216.742 252.5,219.5C 253.76,212.838 253.76,206.171 252.5,199.5 Z"/></g>
<g><path style="opacity:0.078" fill="#0f2934" d="M 213.5,192.5 C 212.844,194.484 212.178,196.484 211.5,198.5C 212.083,203.097 213.416,207.431 215.5,211.5C 211.876,207.635 210.209,202.968 210.5,197.5C 210.75,195.326 211.75,193.659 213.5,192.5 Z"/></g>
<g><path style="opacity:0.129" fill="#10222c" d="M 215.5,211.5 C 217.9,213.296 219.567,215.63 220.5,218.5C 218.1,216.704 216.433,214.37 215.5,211.5 Z"/></g>
<g><path style="opacity:0.38" fill="#511b69" d="M 195.5,187.5 C 193.928,198.098 194.595,208.432 197.5,218.5C 197.5,218.833 197.5,219.167 197.5,219.5C 196.833,219.5 196.167,219.5 195.5,219.5C 193.069,208.679 193.069,198.013 195.5,187.5 Z"/></g>
<g><path style="opacity:0.996" fill="#40b88a" d="M 210.5,197.5 C 210.209,202.968 211.876,207.635 215.5,211.5C 216.433,214.37 218.1,216.704 220.5,218.5C 221.075,220.411 222.075,222.078 223.5,223.5C 222.883,223.611 222.383,223.944 222,224.5C 219.092,221.523 216.259,221.19 213.5,223.5C 208.09,216.434 205.59,208.434 206,199.5C 207.11,197.963 208.61,197.297 210.5,197.5 Z"/></g>
<g><path style="opacity:0.039" fill="#1d0733" d="M 276.5,216.5 C 276.573,218.027 275.906,219.027 274.5,219.5C 274.427,217.973 275.094,216.973 276.5,216.5 Z"/></g>
<g><path style="opacity:0.004" fill="#0b161f" d="M 195.5,219.5 C 196.167,219.5 196.833,219.5 197.5,219.5C 197.5,220.833 197.5,222.167 197.5,223.5C 196.655,222.329 195.989,220.995 195.5,219.5 Z"/></g>
<g><path style="opacity:0.271" fill="#11242c" d="M 220.5,218.5 C 223.573,220.569 225.906,223.236 227.5,226.5C 226.167,225.5 224.833,224.5 223.5,223.5C 222.075,222.078 221.075,220.411 220.5,218.5 Z"/></g>
<g><path style="opacity:0.62" fill="#113d44" d="M 197.5,223.5 C 199.999,227.165 201.999,231.165 203.5,235.5C 203.833,236.833 204.167,238.167 204.5,239.5C 202.864,238.251 201.697,236.584 201,234.5C 199.326,230.979 198.16,227.313 197.5,223.5 Z"/></g>
<g><path style="opacity:0.998" fill="#1ba799" d="M 213.5,192.5 C 211.75,193.659 210.75,195.326 210.5,197.5C 208.61,197.297 207.11,197.963 206,199.5C 205.59,208.434 208.09,216.434 213.5,223.5C 214.248,225.332 215.248,226.999 216.5,228.5C 216.586,229.496 216.252,230.329 215.5,231C 211.073,231.951 207.073,233.451 203.5,235.5C 201.999,231.165 199.999,227.165 197.5,223.5C 197.5,222.167 197.5,220.833 197.5,219.5C 197.5,219.167 197.5,218.833 197.5,218.5C 197.19,215.287 197.523,212.287 198.5,209.5C 201.926,202.342 206.593,196.009 212.5,190.5C 213.298,190.957 213.631,191.624 213.5,192.5 Z"/></g>
<g><path style="opacity:0.533" fill="#193239" d="M 227.5,226.5 C 232.167,230.833 236.833,235.167 241.5,239.5C 241.672,240.492 241.338,241.158 240.5,241.5C 235.771,236.776 231.437,231.776 227.5,226.5 Z"/></g>
<g><path style="opacity:0.698" fill="#491a61" d="M 252.5,220.5 C 252.5,221.5 252.5,222.5 252.5,223.5C 252.327,227.747 250.661,231.08 247.5,233.5C 249.387,229.158 251.054,224.825 252.5,220.5 Z"/></g>
<g><path style="opacity:0.998" fill="#61c77f" d="M 223.5,223.5 C 224.833,224.5 226.167,225.5 227.5,226.5C 231.437,231.776 235.771,236.776 240.5,241.5C 240.167,242.5 239.5,243.167 238.5,243.5C 238.167,243.5 237.833,243.5 237.5,243.5C 237.67,242.178 237.337,241.011 236.5,240C 233,238.833 229.5,237.667 226,236.5C 224.97,236.836 224.47,237.503 224.5,238.5C 221.833,235.167 219.167,231.833 216.5,228.5C 215.248,226.999 214.248,225.332 213.5,223.5C 216.259,221.19 219.092,221.523 222,224.5C 222.383,223.944 222.883,223.611 223.5,223.5 Z"/></g>
<g><path style="opacity:0.995" fill="#a42fc0" d="M 257.5,225.5 C 256.699,227.042 256.366,228.708 256.5,230.5C 252.435,235.568 247.768,239.902 242.5,243.5C 241.833,243.5 241.5,243.833 241.5,244.5C 241.167,244.5 240.833,244.5 240.5,244.5C 239.508,244.672 238.842,244.338 238.5,243.5C 239.5,243.167 240.167,242.5 240.5,241.5C 241.338,241.158 241.672,240.492 241.5,239.5C 242.5,238.833 243.5,238.167 244.5,237.5C 246.262,236.738 247.262,235.404 247.5,233.5C 250.661,231.08 252.327,227.747 252.5,223.5C 254.097,222.91 255.431,221.91 256.5,220.5C 257.452,222.045 257.785,223.712 257.5,225.5 Z"/></g>
<g><path style="opacity:0.188" fill="#2a103b" d="M 247.5,233.5 C 247.262,235.404 246.262,236.738 244.5,237.5C 244.738,235.596 245.738,234.262 247.5,233.5 Z"/></g>
<g><path style="opacity:1" fill="#26ae92" d="M 216.5,228.5 C 219.167,231.833 221.833,235.167 224.5,238.5C 224.833,239.167 225.167,239.833 225.5,240.5C 225.389,241.117 225.056,241.617 224.5,242C 220.636,242.706 216.803,243.539 213,244.5C 212.228,244.355 211.561,244.022 211,243.5C 211.052,246.272 212.219,248.606 214.5,250.5C 214.137,251.183 213.804,251.85 213.5,252.5C 212.833,252.167 212.167,251.833 211.5,251.5C 211.573,249.973 210.906,248.973 209.5,248.5C 208.921,245.669 207.588,243.336 205.5,241.5C 204.662,241.158 204.328,240.492 204.5,239.5C 204.167,238.167 203.833,236.833 203.5,235.5C 207.073,233.451 211.073,231.951 215.5,231C 216.252,230.329 216.586,229.496 216.5,228.5 Z"/></g>
<g><path style="opacity:0.996" fill="#8f69a2" d="M 237.5,243.5 C 237.833,243.5 238.167,243.5 238.5,243.5C 238.842,244.338 239.508,244.672 240.5,244.5C 238.956,245.914 237.289,246.247 235.5,245.5C 236.243,244.818 236.909,244.151 237.5,243.5 Z"/></g>
<g><path style="opacity:0.965" fill="#457655" d="M 241.5,244.5 C 241.5,243.833 241.833,243.5 242.5,243.5C 243.167,243.5 243.833,243.5 244.5,243.5C 245.551,244.222 246.218,245.222 246.5,246.5C 244.678,246.169 243.011,245.502 241.5,244.5 Z"/></g>
<g><path style="opacity:0.004" fill="#0e1f25" d="M 205.5,241.5 C 207.588,243.336 208.921,245.669 209.5,248.5C 207.412,246.664 206.079,244.331 205.5,241.5 Z"/></g>
<g><path style="opacity:0.471" fill="#263e3c" d="M 246.5,246.5 C 249.167,248.5 251.5,250.833 253.5,253.5C 253.5,253.833 253.5,254.167 253.5,254.5C 253.5,255.167 253.167,255.5 252.5,255.5C 250.5,252.5 248.5,249.5 246.5,246.5 Z"/></g>
<g><path style="opacity:0.998" fill="#82d573" d="M 237.5,243.5 C 236.909,244.151 236.243,244.818 235.5,245.5C 237.289,246.247 238.956,245.914 240.5,244.5C 240.833,244.5 241.167,244.5 241.5,244.5C 243.011,245.502 244.678,246.169 246.5,246.5C 248.5,249.5 250.5,252.5 252.5,255.5C 248.937,256.282 245.603,257.616 242.5,259.5C 240.629,259.141 239.129,258.141 238,256.5C 234.055,250.916 229.888,245.583 225.5,240.5C 225.167,239.833 224.833,239.167 224.5,238.5C 224.47,237.503 224.97,236.836 226,236.5C 229.5,237.667 233,238.833 236.5,240C 237.337,241.011 237.67,242.178 237.5,243.5 Z"/></g>
<g><path style="opacity:0.004" fill="#0d191c" d="M 209.5,248.5 C 210.906,248.973 211.573,249.973 211.5,251.5C 210.094,251.027 209.427,250.027 209.5,248.5 Z"/></g>
<g><path style="opacity:0.039" fill="#140633" d="M 284.5,248.5 C 291.242,248.935 297.575,250.769 303.5,254C 306.118,256.106 308.118,258.606 309.5,261.5C 302.757,254.296 294.423,250.63 284.5,250.5C 284.5,249.833 284.5,249.167 284.5,248.5 Z"/></g>
<g><path style="opacity:0.698" fill="#270c5b" d="M 284.5,248.5 C 284.5,249.167 284.5,249.833 284.5,250.5C 276.48,250.948 268.48,251.615 260.5,252.5C 268.203,250.159 276.203,248.825 284.5,248.5 Z"/></g>
<g><path style="opacity:0.004" fill="#0f1626" d="M 211.5,251.5 C 212.167,251.833 212.833,252.167 213.5,252.5C 213.5,253.167 213.5,253.833 213.5,254.5C 212.094,254.027 211.427,253.027 211.5,251.5 Z"/></g>
<g><path style="opacity:0.259" fill="#1c0b42" d="M 260.5,252.5 C 259.5,253.167 258.5,253.833 257.5,254.5C 256.167,254.5 254.833,254.5 253.5,254.5C 253.5,254.167 253.5,253.833 253.5,253.5C 255.806,253.007 258.139,252.674 260.5,252.5 Z"/></g>
<g><path style="opacity:0.004" fill="#0e1419" d="M 213.5,254.5 C 214.906,254.973 215.573,255.973 215.5,257.5C 214.094,257.027 213.427,256.027 213.5,254.5 Z"/></g>
<g><path style="opacity:1" fill="#3fb68b" d="M 225.5,240.5 C 229.888,245.583 234.055,250.916 238,256.5C 239.129,258.141 240.629,259.141 242.5,259.5C 238.302,261.433 234.635,264.099 231.5,267.5C 229.246,268.415 227.246,269.748 225.5,271.5C 224.833,271.167 224.167,270.833 223.5,270.5C 222.662,270.158 222.328,269.492 222.5,268.5C 222.25,266.326 221.25,264.659 219.5,263.5C 219.573,261.973 218.906,260.973 217.5,260.5C 217.573,258.973 216.906,257.973 215.5,257.5C 215.573,255.973 214.906,254.973 213.5,254.5C 213.5,253.833 213.5,253.167 213.5,252.5C 213.804,251.85 214.137,251.183 214.5,250.5C 212.219,248.606 211.052,246.272 211,243.5C 211.561,244.022 212.228,244.355 213,244.5C 216.803,243.539 220.636,242.706 224.5,242C 225.056,241.617 225.389,241.117 225.5,240.5 Z"/></g>
<g><path style="opacity:0.004" fill="#0d1621" d="M 215.5,257.5 C 216.906,257.973 217.573,258.973 217.5,260.5C 216.094,260.027 215.427,259.027 215.5,257.5 Z"/></g>
<g><path style="opacity:0.392" fill="#14082d" d="M 318.5,263.5 C 317.206,262.71 316.039,261.71 315,260.5C 314.536,261.094 314.369,261.761 314.5,262.5C 312.623,261.341 312.123,259.674 313,257.5C 315.744,258.74 317.577,260.74 318.5,263.5 Z"/></g>
<g><path style="opacity:0.004" fill="#101920" d="M 217.5,260.5 C 218.906,260.973 219.573,261.973 219.5,263.5C 218.094,263.027 217.427,262.027 217.5,260.5 Z"/></g>
<g><path style="opacity:0.722" fill="#4f196d" d="M 318.5,263.5 C 319.338,263.842 319.672,264.508 319.5,265.5C 318.508,265.328 317.842,265.662 317.5,266.5C 316.833,265.833 316.167,265.167 315.5,264.5C 314.662,264.158 314.328,263.492 314.5,262.5C 314.369,261.761 314.536,261.094 315,260.5C 316.039,261.71 317.206,262.71 318.5,263.5 Z"/></g>
<g><path style="opacity:0.997" fill="#3a0d85" d="M 262.5,264.5 C 274.02,262.611 283.186,266.278 290,275.5C 291.53,283.436 291.863,291.436 291,299.5C 290.722,300.416 290.222,301.082 289.5,301.5C 289.656,297.418 289.156,293.418 288,289.5C 287.303,287.416 286.136,285.749 284.5,284.5C 281.045,281.11 277.045,278.777 272.5,277.5C 271.432,276.566 270.099,276.232 268.5,276.5C 268.167,276.5 267.833,276.5 267.5,276.5C 262.684,275.674 257.684,275.174 252.5,275C 250.5,273 248.5,271 246.5,269C 251.198,265.554 256.531,264.054 262.5,264.5 Z"/></g>
<g><path style="opacity:0.067" fill="#142435" d="M 219.5,263.5 C 221.25,264.659 222.25,266.326 222.5,268.5C 220.75,267.341 219.75,265.674 219.5,263.5 Z"/></g>
<g><path style="opacity:0.525" fill="#3b135c" d="M 319.5,265.5 C 321.074,267.102 321.741,269.102 321.5,271.5C 319.926,269.898 319.259,267.898 319.5,265.5 Z"/></g>
<g><path style="opacity:1" fill="#4c1191" d="M 284.5,250.5 C 294.423,250.63 302.757,254.296 309.5,261.5C 310.338,261.842 310.672,262.508 310.5,263.5C 310.5,264.167 310.5,264.833 310.5,265.5C 309.778,265.082 309.278,264.416 309,263.5C 307.448,264.966 305.614,265.966 303.5,266.5C 304.112,275.881 303.445,285.214 301.5,294.5C 299.703,300.706 297.203,306.706 294,312.5C 294.811,310.209 293.977,308.375 291.5,307C 290.423,306.53 289.423,306.697 288.5,307.5C 289.15,305.565 289.483,303.565 289.5,301.5C 290.222,301.082 290.722,300.416 291,299.5C 291.863,291.436 291.53,283.436 290,275.5C 283.186,266.278 274.02,262.611 262.5,264.5C 262.953,263.542 263.619,262.708 264.5,262C 261.933,259.604 259.6,257.104 257.5,254.5C 258.5,253.833 259.5,253.167 260.5,252.5C 268.48,251.615 276.48,250.948 284.5,250.5 Z"/></g>
<g><path style="opacity:1" fill="#61209b" d="M 253.5,254.5 C 254.833,254.5 256.167,254.5 257.5,254.5C 259.6,257.104 261.933,259.604 264.5,262C 263.619,262.708 262.953,263.542 262.5,264.5C 256.531,264.054 251.198,265.554 246.5,269C 248.5,271 250.5,273 252.5,275C 257.684,275.174 262.684,275.674 267.5,276.5C 262.489,276.334 257.489,276.501 252.5,277C 247.177,278.609 241.844,280.109 236.5,281.5C 234.73,280.236 233.063,278.736 231.5,277C 233.017,275.315 234.684,273.815 236.5,272.5C 235.145,270.479 233.479,268.812 231.5,267.5C 234.635,264.099 238.302,261.433 242.5,259.5C 245.603,257.616 248.937,256.282 252.5,255.5C 253.167,255.5 253.5,255.167 253.5,254.5 Z"/></g>
<g><path style="opacity:0.976" fill="#7620a6" d="M 319.5,265.5 C 319.259,267.898 319.926,269.898 321.5,271.5C 321.5,276.5 321.5,281.5 321.5,286.5C 319.402,287.914 318.402,287.248 318.5,284.5C 318.697,278.455 318.363,272.455 317.5,266.5C 317.842,265.662 318.508,265.328 319.5,265.5 Z"/></g>
<g><path style="opacity:0.016" fill="#120335" d="M 310.5,263.5 C 314.101,269.828 315.101,276.494 313.5,283.5C 313.782,277.248 312.782,271.248 310.5,265.5C 310.5,264.833 310.5,264.167 310.5,263.5 Z"/></g>
<g><path style="opacity:0.997" fill="#7bac79" d="M 267.5,276.5 C 267.833,276.5 268.167,276.5 268.5,276.5C 269.038,278.117 269.371,279.784 269.5,281.5C 264.337,279.817 259.004,279.15 253.5,279.5C 248.452,280.187 243.452,281.187 238.5,282.5C 237.833,282.5 237.167,282.5 236.5,282.5C 236.5,282.167 236.5,281.833 236.5,281.5C 241.844,280.109 247.177,278.609 252.5,277C 257.489,276.501 262.489,276.334 267.5,276.5 Z"/></g>
<g><path style="opacity:0.999" fill="#6e1da3" d="M 310.5,265.5 C 312.782,271.248 313.782,277.248 313.5,283.5C 312.833,285.167 312.167,286.833 311.5,288.5C 311.631,287.624 311.298,286.957 310.5,286.5C 308.382,287.946 306.049,288.613 303.5,288.5C 303.405,290.786 302.738,292.786 301.5,294.5C 303.445,285.214 304.112,275.881 303.5,266.5C 305.614,265.966 307.448,264.966 309,263.5C 309.278,264.416 309.778,265.082 310.5,265.5 Z"/></g>
<g><path style="opacity:0.69" fill="#331349" d="M 223.5,270.5 C 224.167,270.833 224.833,271.167 225.5,271.5C 223.167,274.5 220.5,277.167 217.5,279.5C 217.378,282.292 216.044,284.292 213.5,285.5C 213.672,284.508 213.338,283.842 212.5,283.5C 213.028,282.153 213.195,280.819 213,279.5C 211.629,281.041 210.129,282.375 208.5,283.5C 210.168,279.668 213.001,277.001 217,275.5C 217.772,275.645 218.439,275.978 219,276.5C 221.127,274.886 222.627,272.886 223.5,270.5 Z"/></g>
<g><path style="opacity:0.999" fill="#8fda6c" d="M 253.5,279.5 C 259.004,279.15 264.337,279.817 269.5,281.5C 275.121,297.527 272.954,312.527 263,326.5C 258.963,330.369 255.13,334.369 251.5,338.5C 249.147,339.34 247.147,340.674 245.5,342.5C 245.158,343.338 244.492,343.672 243.5,343.5C 241.973,343.427 240.973,344.094 240.5,345.5C 238.033,345.755 236.033,346.755 234.5,348.5C 233.325,348.719 232.325,348.386 231.5,347.5C 232.127,346.583 232.461,345.583 232.5,344.5C 235.317,341.069 236.983,337.069 237.5,332.5C 238.341,325.535 238.674,318.535 238.5,311.5C 238.549,308.626 238.216,305.792 237.5,303C 237.316,301.624 236.649,300.791 235.5,300.5C 236.01,297.612 235.344,295.279 233.5,293.5C 233.946,290.99 233.28,288.99 231.5,287.5C 231.5,286.833 231.5,286.167 231.5,285.5C 232.899,284.11 234.566,283.11 236.5,282.5C 237.167,282.5 237.833,282.5 238.5,282.5C 243.532,292.258 247.199,302.592 249.5,313.5C 251.709,312.894 253.876,312.227 256,311.5C 256.333,311.833 256.667,312.167 257,312.5C 258.527,306.585 258.861,300.585 258,294.5C 256.596,289.456 255.096,284.456 253.5,279.5 Z"/></g>
<g><path style="opacity:0.024" fill="#11072d" d="M 315.5,264.5 C 316.167,265.167 316.833,265.833 317.5,266.5C 318.363,272.455 318.697,278.455 318.5,284.5C 318.167,284.5 317.833,284.5 317.5,284.5C 317.799,277.717 317.133,271.051 315.5,264.5 Z"/></g>
<g><path style="opacity:0.863" fill="#4b1677" d="M 212.5,283.5 C 211.89,284.391 211.557,285.391 211.5,286.5C 210.662,286.842 210.328,287.508 210.5,288.5C 208.588,290.657 206.921,292.991 205.5,295.5C 203.837,297.493 202.67,299.826 202,302.5C 200.61,308.938 199.443,315.272 198.5,321.5C 197.397,309.514 199.564,298.181 205,287.5C 205.949,285.907 207.115,284.574 208.5,283.5C 210.129,282.375 211.629,281.041 213,279.5C 213.195,280.819 213.028,282.153 212.5,283.5 Z"/></g>
<g><path style="opacity:0.996" fill="#8124ab" d="M 231.5,267.5 C 233.479,268.812 235.145,270.479 236.5,272.5C 234.684,273.815 233.017,275.315 231.5,277C 233.063,278.736 234.73,280.236 236.5,281.5C 236.5,281.833 236.5,282.167 236.5,282.5C 234.566,283.11 232.899,284.11 231.5,285.5C 228.802,285.845 226.802,287.178 225.5,289.5C 223.973,289.427 222.973,290.094 222.5,291.5C 220.5,294.167 218.167,296.5 215.5,298.5C 215.785,296.712 215.452,295.045 214.5,293.5C 212.844,295.022 211.677,294.689 211,292.5C 210.583,293.756 209.75,294.423 208.5,294.5C 209.167,292.5 209.833,290.5 210.5,288.5C 211.338,288.158 211.672,287.492 211.5,286.5C 212.167,286.167 212.833,285.833 213.5,285.5C 216.044,284.292 217.378,282.292 217.5,279.5C 220.5,277.167 223.167,274.5 225.5,271.5C 227.246,269.748 229.246,268.415 231.5,267.5 Z"/></g>
<g><path style="opacity:0.008" fill="#140c24" d="M 231.5,285.5 C 231.5,286.167 231.5,286.833 231.5,287.5C 229.315,287.704 227.315,288.37 225.5,289.5C 226.802,287.178 228.802,285.845 231.5,285.5 Z"/></g>
<g><path style="opacity:0.412" fill="#273d37" d="M 231.5,287.5 C 233.28,288.99 233.946,290.99 233.5,293.5C 232.262,291.786 231.595,289.786 231.5,287.5 Z"/></g>
<g><path style="opacity:0.012" fill="#150625" d="M 225.5,289.5 C 225.027,290.906 224.027,291.573 222.5,291.5C 222.973,290.094 223.973,289.427 225.5,289.5 Z"/></g>
<g><path style="opacity:1" fill="#66ca7d" d="M 253.5,279.5 C 255.096,284.456 256.596,289.456 258,294.5C 258.861,300.585 258.527,306.585 257,312.5C 256.667,312.167 256.333,311.833 256,311.5C 253.876,312.227 251.709,312.894 249.5,313.5C 247.199,302.592 243.532,292.258 238.5,282.5C 243.452,281.187 248.452,280.187 253.5,279.5 Z"/></g>
<g><path style="opacity:0.575" fill="#260c50" d="M 284.5,284.5 C 286.136,285.749 287.303,287.416 288,289.5C 289.156,293.418 289.656,297.418 289.5,301.5C 289.483,303.565 289.15,305.565 288.5,307.5C 288.843,309.483 288.176,310.817 286.5,311.5C 287.035,307.489 287.702,303.489 288.5,299.5C 287.922,294.269 286.589,289.269 284.5,284.5 Z"/></g>
<g><path style="opacity:0.035" fill="#202d2f" d="M 233.5,293.5 C 235.344,295.279 236.01,297.612 235.5,300.5C 234.388,298.401 233.721,296.067 233.5,293.5 Z"/></g>
<g><path style="opacity:0.612" fill="#2a0c60" d="M 317.5,284.5 C 317.833,284.5 318.167,284.5 318.5,284.5C 318.402,287.248 319.402,287.914 321.5,286.5C 320.105,293.951 317.105,300.617 312.5,306.5C 311.904,305.065 311.904,303.398 312.5,301.5C 314.377,295.872 316.043,290.206 317.5,284.5 Z"/></g>
<g><path style="opacity:0.212" fill="#304532" d="M 235.5,300.5 C 236.649,300.791 237.316,301.624 237.5,303C 238.216,305.792 238.549,308.626 238.5,311.5C 238.167,311.5 237.833,311.5 237.5,311.5C 236.313,308.054 235.646,304.387 235.5,300.5 Z"/></g>
<g><path style="opacity:0.008" fill="#1b0c31" d="M 313.5,283.5 C 312.733,292.133 310.733,300.467 307.5,308.5C 305.605,309.973 303.939,311.64 302.5,313.5C 304.988,307.855 307.488,302.188 310,296.5C 310.822,293.883 311.322,291.216 311.5,288.5C 312.167,286.833 312.833,285.167 313.5,283.5 Z"/></g>
<g><path style="opacity:0.995" fill="#a52fbf" d="M 215.5,298.5 C 206.962,306.931 202.795,317.264 203,329.5C 202.501,324.511 202.334,319.511 202.5,314.5C 202.5,312.833 202.5,311.167 202.5,309.5C 203.117,309.389 203.617,309.056 204,308.5C 205.812,303.889 207.312,299.223 208.5,294.5C 209.75,294.423 210.583,293.756 211,292.5C 211.677,294.689 212.844,295.022 214.5,293.5C 215.452,295.045 215.785,296.712 215.5,298.5 Z"/></g>
<g><path style="opacity:0.341" fill="#15093f" d="M 312.5,301.5 C 311.904,303.398 311.904,305.065 312.5,306.5C 311.303,310.031 309.303,313.031 306.5,315.5C 306.167,315 305.833,314.5 305.5,314C 306.32,312.2 306.986,310.366 307.5,308.5C 309.412,306.343 311.079,304.009 312.5,301.5 Z"/></g>
<g><path style="opacity:0.318" fill="#240f3f" d="M 208.5,294.5 C 207.312,299.223 205.812,303.889 204,308.5C 203.617,309.056 203.117,309.389 202.5,309.5C 201.167,311.167 201.167,312.833 202.5,314.5C 202.334,319.511 202.501,324.511 203,329.5C 202.795,317.264 206.962,306.931 215.5,298.5C 212.422,303.653 209.589,308.986 207,314.5C 205.983,321.798 205.149,329.131 204.5,336.5C 203.914,336.291 203.414,335.957 203,335.5C 201.97,331.227 201.303,326.894 201,322.5C 199.78,324.857 198.947,324.524 198.5,321.5C 199.443,315.272 200.61,308.938 202,302.5C 202.67,299.826 203.837,297.493 205.5,295.5C 205.351,296.552 205.517,297.552 206,298.5C 206.608,296.934 207.442,295.6 208.5,294.5 Z"/></g>
<g><path style="opacity:0.482" fill="#1e0d3d" d="M 286.5,311.5 C 286.263,314.647 285.43,317.647 284,320.5C 283.34,322.324 282.173,323.657 280.5,324.5C 282.264,319.978 284.264,315.645 286.5,311.5 Z"/></g>
<g><path style="opacity:0.043" fill="#1a082e" d="M 302.5,313.5 C 302.573,315.027 301.906,316.027 300.5,316.5C 300.427,314.973 301.094,313.973 302.5,313.5 Z"/></g>
<g><path style="opacity:0.024" fill="#190b32" d="M 300.5,316.5 C 300.262,318.404 299.262,319.738 297.5,320.5C 297.738,318.596 298.738,317.262 300.5,316.5 Z"/></g>
<g><path style="opacity:0.012" fill="#1c2526" d="M 268.5,276.5 C 270.099,276.232 271.432,276.566 272.5,277.5C 271.624,277.369 270.957,277.702 270.5,278.5C 279.283,303.386 272.95,323.386 251.5,338.5C 255.13,334.369 258.963,330.369 263,326.5C 272.954,312.527 275.121,297.527 269.5,281.5C 269.371,279.784 269.038,278.117 268.5,276.5 Z"/></g>
<g><path style="opacity:0.016" fill="#1c0d3b" d="M 296.5,321.5 C 295.92,323.749 294.587,325.415 292.5,326.5C 293.08,324.251 294.413,322.585 296.5,321.5 Z"/></g>
<g><path style="opacity:0.22" fill="#101727" d="M 237.5,311.5 C 237.833,311.5 238.167,311.5 238.5,311.5C 238.674,318.535 238.341,325.535 237.5,332.5C 237.167,332.5 236.833,332.5 236.5,332.5C 237.232,325.524 237.565,318.524 237.5,311.5 Z"/></g>
<g><path style="opacity:0.059" fill="#1b0b35" d="M 280.5,324.5 C 279.277,328.049 277.277,331.049 274.5,333.5C 275.759,329.975 277.759,326.975 280.5,324.5 Z"/></g>
<g><path style="opacity:0.839" fill="#3f1951" d="M 285.5,333.5 C 283.2,335.984 280.533,337.984 277.5,339.5C 278.234,338.292 278.567,336.959 278.5,335.5C 281.108,335.6 283.442,334.933 285.5,333.5 Z"/></g>
<g><path style="opacity:0.596" fill="#2e3f32" d="M 236.5,332.5 C 236.833,332.5 237.167,332.5 237.5,332.5C 236.983,337.069 235.317,341.069 232.5,344.5C 233.66,340.353 234.993,336.353 236.5,332.5 Z"/></g>
<g><path style="opacity:0.008" fill="#111619" d="M 251.5,338.5 C 250.198,340.822 248.198,342.155 245.5,342.5C 247.147,340.674 249.147,339.34 251.5,338.5 Z"/></g>
<g><path style="opacity:0.992" fill="#8424ad" d="M 311.5,288.5 C 311.322,291.216 310.822,293.883 310,296.5C 307.488,302.188 304.988,307.855 302.5,313.5C 301.094,313.973 300.427,314.973 300.5,316.5C 298.738,317.262 297.738,318.596 297.5,320.5C 297.5,321.167 297.167,321.5 296.5,321.5C 294.413,322.585 293.08,324.251 292.5,326.5C 290.5,329.167 288.167,331.5 285.5,333.5C 283.442,334.933 281.108,335.6 278.5,335.5C 278.567,336.959 278.234,338.292 277.5,339.5C 275.973,339.427 274.973,340.094 274.5,341.5C 272.847,341.66 271.514,342.326 270.5,343.5C 269.325,343.719 268.325,343.386 267.5,342.5C 270.263,339.748 272.597,336.748 274.5,333.5C 277.277,331.049 279.277,328.049 280.5,324.5C 282.173,323.657 283.34,322.324 284,320.5C 285.43,317.647 286.263,314.647 286.5,311.5C 288.176,310.817 288.843,309.483 288.5,307.5C 289.423,306.697 290.423,306.53 291.5,307C 293.977,308.375 294.811,310.209 294,312.5C 297.203,306.706 299.703,300.706 301.5,294.5C 302.738,292.786 303.405,290.786 303.5,288.5C 306.049,288.613 308.382,287.946 310.5,286.5C 311.298,286.957 311.631,287.624 311.5,288.5 Z"/></g>
<g><path style="opacity:0.012" fill="#110620" d="M 277.5,339.5 C 277.027,340.906 276.027,341.573 274.5,341.5C 274.973,340.094 275.973,339.427 277.5,339.5 Z"/></g>
<g><path style="opacity:0.047" fill="#1b0933" d="M 274.5,341.5 C 273.713,343.104 272.38,343.771 270.5,343.5C 271.514,342.326 272.847,341.66 274.5,341.5 Z"/></g>
<g><path style="opacity:0.29" fill="#2a1146" d="M 274.5,333.5 C 272.597,336.748 270.263,339.748 267.5,342.5C 268.325,343.386 269.325,343.719 270.5,343.5C 269.097,344.931 267.431,346.098 265.5,347C 264.056,347.781 262.723,347.614 261.5,346.5C 265.521,341.812 269.854,337.479 274.5,333.5 Z"/></g>
<g><path style="opacity:0.016" fill="#111231" d="M 243.5,343.5 C 243.027,344.906 242.027,345.573 240.5,345.5C 240.973,344.094 241.973,343.427 243.5,343.5 Z"/></g>
<g><path style="opacity:0.004" fill="#121617" d="M 240.5,345.5 C 238.967,347.245 236.967,348.245 234.5,348.5C 236.033,346.755 238.033,345.755 240.5,345.5 Z"/></g>
<g><path style="opacity:0.29" fill="#20292f" d="M 232.5,344.5 C 232.461,345.583 232.127,346.583 231.5,347.5C 232.325,348.386 233.325,348.719 234.5,348.5C 228.782,349.929 228.115,348.595 232.5,344.5 Z"/></g>
</svg>
