<svg width="181" height="43" viewBox="0 0 181 43" fill="none" xmlns="http://www.w3.org/2000/svg">
<g filter="url(#filter0_d_45_153)">
<path d="M4.6 35V0.499997H11.8V14H24.6V0.499997H31.8V35H24.6V20.5H11.8V35H4.6ZM40.0004 35V0.499997H47.2004V35H40.0004ZM55.3813 35V0.499997H62.5813V14H75.3813V0.499997H82.5813V35H75.3813V20.5H62.5813V35H55.3813ZM87.5816 33.65L97.8316 0.499997H108.832L119.082 33.65L118.182 35H112.182L110.082 28H96.5816L94.4816 35H88.4816L87.5816 33.65ZM98.5316 21.5H108.132L103.732 7H102.932L98.5316 21.5ZM124.082 35V0.499997H132.682L142.382 21.2L152.082 0.499997H160.682V35H153.482V13.2L145.382 30.5H139.382L131.282 13.2V35H124.082ZM168.907 35V0.499997H176.107V35H168.907Z" fill="white"/>
<path d="M4.6 35H3.6V36H4.6V35ZM4.6 0.499997V-0.500003H3.6V0.499997H4.6ZM11.8 0.499997H12.8V-0.500003H11.8V0.499997ZM11.8 14H10.8V15H11.8V14ZM24.6 14V15H25.6V14H24.6ZM24.6 0.499997V-0.500003H23.6V0.499997H24.6ZM31.8 0.499997H32.8V-0.500003H31.8V0.499997ZM31.8 35V36H32.8V35H31.8ZM24.6 35H23.6V36H24.6V35ZM24.6 20.5H25.6V19.5H24.6V20.5ZM11.8 20.5V19.5H10.8V20.5H11.8ZM11.8 35V36H12.8V35H11.8ZM5.6 35V0.499997H3.6V35H5.6ZM4.6 1.5H11.8V-0.500003H4.6V1.5ZM10.8 0.499997V14H12.8V0.499997H10.8ZM11.8 15H24.6V13H11.8V15ZM25.6 14V0.499997H23.6V14H25.6ZM24.6 1.5H31.8V-0.500003H24.6V1.5ZM30.8 0.499997V35H32.8V0.499997H30.8ZM31.8 34H24.6V36H31.8V34ZM25.6 35V20.5H23.6V35H25.6ZM24.6 19.5H11.8V21.5H24.6V19.5ZM10.8 20.5V35H12.8V20.5H10.8ZM11.8 34H4.6V36H11.8V34ZM40.0004 35H39.0004V36H40.0004V35ZM40.0004 0.499997V-0.500003H39.0004V0.499997H40.0004ZM47.2004 0.499997H48.2004V-0.500003H47.2004V0.499997ZM47.2004 35V36H48.2004V35H47.2004ZM41.0004 35V0.499997H39.0004V35H41.0004ZM40.0004 1.5H47.2004V-0.500003H40.0004V1.5ZM46.2004 0.499997V35H48.2004V0.499997H46.2004ZM47.2004 34H40.0004V36H47.2004V34ZM55.3813 35H54.3813V36H55.3813V35ZM55.3813 0.499997V-0.500003H54.3813V0.499997H55.3813ZM62.5813 0.499997H63.5813V-0.500003H62.5813V0.499997ZM62.5813 14H61.5813V15H62.5813V14ZM75.3813 14V15H76.3813V14H75.3813ZM75.3813 0.499997V-0.500003H74.3813V0.499997H75.3813ZM82.5813 0.499997H83.5813V-0.500003H82.5813V0.499997ZM82.5813 35V36H83.5813V35H82.5813ZM75.3813 35H74.3813V36H75.3813V35ZM75.3813 20.5H76.3813V19.5H75.3813V20.5ZM62.5813 20.5V19.5H61.5813V20.5H62.5813ZM62.5813 35V36H63.5813V35H62.5813ZM56.3813 35V0.499997H54.3813V35H56.3813ZM55.3813 1.5H62.5813V-0.500003H55.3813V1.5ZM61.5813 0.499997V14H63.5813V0.499997H61.5813ZM62.5813 15H75.3813V13H62.5813V15ZM76.3813 14V0.499997H74.3813V14H76.3813ZM75.3813 1.5H82.5813V-0.500003H75.3813V1.5ZM81.5813 0.499997V35H83.5813V0.499997H81.5813ZM82.5813 34H75.3813V36H82.5813V34ZM76.3813 35V20.5H74.3813V35H76.3813ZM75.3813 19.5H62.5813V21.5H75.3813V19.5ZM61.5813 20.5V35H63.5813V20.5H61.5813ZM62.5813 34H55.3813V36H62.5813V34ZM87.5816 33.65L86.6263 33.3546L86.4858 33.809L86.7496 34.2047L87.5816 33.65ZM97.8316 0.499997V-0.500003H97.0941L96.8763 0.204595L97.8316 0.499997ZM108.832 0.499997L109.787 0.204595L109.569 -0.500003H108.832V0.499997ZM119.082 33.65L119.914 34.2047L120.178 33.809L120.037 33.3546L119.082 33.65ZM118.182 35V36H118.717L119.014 35.5547L118.182 35ZM112.182 35L111.224 35.2873L111.438 36H112.182V35ZM110.082 28L111.039 27.7127L110.826 27H110.082V28ZM96.5816 28V27H95.8376L95.6238 27.7127L96.5816 28ZM94.4816 35V36H95.2257L95.4395 35.2873L94.4816 35ZM88.4816 35L87.6496 35.5547L87.9465 36H88.4816V35ZM98.5316 21.5L97.5747 21.2096L97.1832 22.5H98.5316V21.5ZM108.132 21.5V22.5H109.48L109.089 21.2096L108.132 21.5ZM103.732 7L104.689 6.70963L104.473 6H103.732V7ZM102.932 7V6H102.19L101.975 6.70963L102.932 7ZM88.537 33.9454L98.787 0.795399L96.8763 0.204595L86.6263 33.3546L88.537 33.9454ZM97.8316 1.5H108.832V-0.500003H97.8316V1.5ZM107.876 0.795399L118.126 33.9454L120.037 33.3546L109.787 0.204595L107.876 0.795399ZM118.25 33.0953L117.35 34.4453L119.014 35.5547L119.914 34.2047L118.25 33.0953ZM118.182 34H112.182V36H118.182V34ZM113.139 34.7127L111.039 27.7127L109.124 28.2873L111.224 35.2873L113.139 34.7127ZM110.082 27H96.5816V29H110.082V27ZM95.6238 27.7127L93.5238 34.7127L95.4395 35.2873L97.5395 28.2873L95.6238 27.7127ZM94.4816 34H88.4816V36H94.4816V34ZM89.3137 34.4453L88.4137 33.0953L86.7496 34.2047L87.6496 35.5547L89.3137 34.4453ZM98.5316 22.5H108.132V20.5H98.5316V22.5ZM109.089 21.2096L104.689 6.70963L102.775 7.29037L107.175 21.7904L109.089 21.2096ZM103.732 6H102.932V8H103.732V6ZM101.975 6.70963L97.5747 21.2096L99.4886 21.7904L103.889 7.29037L101.975 6.70963ZM124.082 35H123.082V36H124.082V35ZM124.082 0.499997V-0.500003H123.082V0.499997H124.082ZM132.682 0.499997L133.588 0.0756754L133.318 -0.500003H132.682V0.499997ZM142.382 21.2L141.477 21.6243L142.382 23.5567L143.288 21.6243L142.382 21.2ZM152.082 0.499997V-0.500003H151.447L151.177 0.0756754L152.082 0.499997ZM160.682 0.499997H161.682V-0.500003H160.682V0.499997ZM160.682 35V36H161.682V35H160.682ZM153.482 35H152.482V36H153.482V35ZM153.482 13.2H154.482L152.577 12.776L153.482 13.2ZM145.382 30.5V31.5H146.018L146.288 30.924L145.382 30.5ZM139.382 30.5L138.477 30.924L138.746 31.5H139.382V30.5ZM131.282 13.2L132.188 12.776L130.282 13.2H131.282ZM131.282 35V36H132.282V35H131.282ZM125.082 35V0.499997H123.082V35H125.082ZM124.082 1.5H132.682V-0.500003H124.082V1.5ZM131.777 0.924319L141.477 21.6243L143.288 20.7757L133.588 0.0756754L131.777 0.924319ZM143.288 21.6243L152.988 0.924319L151.177 0.0756754L141.477 20.7757L143.288 21.6243ZM152.082 1.5H160.682V-0.500003H152.082V1.5ZM159.682 0.499997V35H161.682V0.499997H159.682ZM160.682 34H153.482V36H160.682V34ZM154.482 35V13.2H152.482V35H154.482ZM152.577 12.776L144.477 30.076L146.288 30.924L154.388 13.624L152.577 12.776ZM145.382 29.5H139.382V31.5H145.382V29.5ZM140.288 30.076L132.188 12.776L130.377 13.624L138.477 30.924L140.288 30.076ZM130.282 13.2V35H132.282V13.2H130.282ZM131.282 34H124.082V36H131.282V34ZM168.907 35H167.907V36H168.907V35ZM168.907 0.499997V-0.500003H167.907V0.499997H168.907ZM176.107 0.499997H177.107V-0.500003H176.107V0.499997ZM176.107 35V36H177.107V35H176.107ZM169.907 35V0.499997H167.907V35H169.907ZM168.907 1.5H176.107V-0.500003H168.907V1.5ZM175.107 0.499997V35H177.107V0.499997H175.107ZM176.107 34H168.907V36H176.107V34Z" fill="black"/>
</g>
<defs>
<filter id="filter0_d_45_153" x="0.599976" y="0.5" width="179.507" height="42.5" filterUnits="userSpaceOnUse" color-interpolation-filters="sRGB">
<feFlood flood-opacity="0" result="BackgroundImageFix"/>
<feColorMatrix in="SourceAlpha" type="matrix" values="0 0 0 0 0 0 0 0 0 0 0 0 0 0 0 0 0 0 127 0" result="hardAlpha"/>
<feOffset dy="4"/>
<feGaussianBlur stdDeviation="2"/>
<feComposite in2="hardAlpha" operator="out"/>
<feColorMatrix type="matrix" values="0 0 0 0 0 0 0 0 0 0 0 0 0 0 0 0 0 0 0.25 0"/>
<feBlend mode="normal" in2="BackgroundImageFix" result="effect1_dropShadow_45_153"/>
<feBlend mode="normal" in="SourceGraphic" in2="effect1_dropShadow_45_153" result="shape"/>
</filter>
</defs>
</svg>
