<svg width="22" height="22" viewBox="0 0 22 22" fill="none" xmlns="http://www.w3.org/2000/svg">
<path fill-rule="evenodd" clip-rule="evenodd" d="M12.7737 2.41364C11.7494 1.54897 10.2507 1.54897 9.22624 2.41364L8.12843 3.34027C7.98328 3.46278 7.80367 3.53717 7.61441 3.55318L6.1829 3.67424C4.8471 3.78721 3.7874 4.84692 3.67443 6.18272L3.55336 7.61423C3.53736 7.80348 3.46296 7.9831 3.34046 8.12824L2.41382 9.22605C1.54915 10.2505 1.54915 11.7492 2.41382 12.7736L3.34046 13.8714C3.46296 14.0165 3.53736 14.1962 3.55336 14.3854L3.67443 15.817C3.7874 17.1527 4.8471 18.2125 6.1829 18.3254L7.61441 18.4465C7.80367 18.4625 7.98328 18.5369 8.12843 18.6594L9.22624 19.586C10.2507 20.4507 11.7494 20.4507 12.7737 19.586L13.8716 18.6594C14.0167 18.5369 14.1964 18.4625 14.3856 18.4465L15.8172 18.3254C17.1529 18.2125 18.2126 17.1527 18.3256 15.817L18.4467 14.3854C18.4627 14.1962 18.5371 14.0165 18.6596 13.8714L19.5862 12.7736C20.4509 11.7492 20.4509 10.2505 19.5862 9.22605L18.6596 8.12824C18.5371 7.9831 18.4627 7.80348 18.4467 7.61423L18.3256 6.18272C18.2126 4.84692 17.1529 3.78721 15.8172 3.67424L14.3856 3.55318C14.1964 3.53717 14.0167 3.46278 13.8716 3.34027L12.7737 2.41364ZM15.25 9.29159C15.5722 8.9694 15.5722 8.44704 15.25 8.12486C14.9278 7.80268 14.4055 7.80268 14.0833 8.12486L10.0833 12.1248L7.91669 9.95819C7.59451 9.63598 7.07215 9.63598 6.74997 9.95819C6.42778 10.2804 6.42778 10.8027 6.74997 11.1249L9.49996 13.8749C9.82217 14.1971 10.3445 14.1971 10.6667 13.8749L15.25 9.29159Z" fill="#00FF38"/>
</svg>
