<svg width="30" height="27" viewBox="0 0 30 27" fill="none" xmlns="http://www.w3.org/2000/svg">
<path d="M2.34548 6.73313C2.34548 9.02506 3.12869 10.6788 4.67157 11.6499C5.93664 12.4476 7.40261 12.5673 8.16541 12.5673C8.35062 12.5673 8.49973 12.5581 8.60332 12.5519C8.60332 12.5519 8.36161 14.0922 9.52936 15.614H9.476C7.45283 15.614 0.854401 16.0266 0.854401 21.3315C0.854401 26.7254 6.91447 27 8.13088 27C8.22663 27 8.28313 26.9969 8.28313 26.9969C8.29569 26.9969 8.38201 27 8.53112 27C9.31119 27 11.3281 26.9049 13.2006 26.0136C15.6302 24.863 16.8623 22.8549 16.8623 20.0536C16.8623 17.3475 14.9852 15.7367 13.6149 14.5585C12.7783 13.839 12.0548 13.2193 12.0548 12.6164C12.0548 12.0027 12.5837 11.541 13.2508 10.9565C14.3322 10.013 15.3524 8.66761 15.3524 6.12409C15.3524 3.88892 15.0558 2.38705 13.2272 1.43438C13.4172 1.33926 14.0921 1.27023 14.4248 1.2242C15.4152 1.09227 16.8639 0.941932 16.8639 0.151875V0H9.64551C9.57331 0.00306818 2.34548 0.263864 2.34548 6.73313V6.73313ZM13.9979 20.5599C14.136 22.7168 12.2478 24.3077 9.41164 24.5086C6.5315 24.7157 4.16146 23.4486 4.02334 21.2932C3.95585 20.2561 4.42201 19.2436 5.33393 18.4352C6.2584 17.6175 7.52817 17.1112 8.90938 17.0115C9.07262 17.0023 9.23428 16.9931 9.39595 16.9931C12.0626 16.9947 13.8676 18.5257 13.9979 20.5599V20.5599ZM12.1129 5.2558C12.8207 7.69193 11.7519 10.2355 10.0473 10.7064C9.8511 10.7599 9.6483 10.7867 9.4446 10.7862C7.88446 10.7862 6.33844 9.2429 5.76399 7.11511C5.44379 5.92466 5.47048 4.87841 5.83776 3.87511C6.19718 2.88563 6.84698 2.22136 7.66315 1.99585C7.85935 1.94216 8.06182 1.91455 8.26743 1.91455C10.1509 1.91455 11.3626 2.67852 12.1129 5.2558V5.2558ZM24.3366 10.4318V5.82955H21.1975V10.4318H16.4888V13.5H21.1975V18.1023H24.3366V13.5H29.0453V10.4318H24.3366Z" fill="#AD1AAF"/>
</svg>
